<svg xmlns="http://www.w3.org/2000/svg" width="198" height="48" fill="none" viewBox="0 0 198 48">
  <path fill="#DE2910" fill-rule="evenodd" d="M9.453 13.531H2.398C6.285 5.521 14.497 0 24 0c13.255 0 24 10.745 24 24 0 2.156-.284 4.246-.818 6.234H36.384c-.875 0-1.614-.062-2.218-.187-.594-.125-1.078-.354-1.453-.688-.376-.333-.646-.78-.813-1.343-.167-.573-.25-1.308-.25-2.203V13.53h-5.797v14.422c0 1.219.167 2.271.5 3.156.344.886.89 1.62 1.64 2.203.75.573 1.714 1 2.891 1.282 1.188.27 2.625.406 4.313.406h10.14C41.346 42.721 33.29 48 24 48S6.653 42.721 2.664 35h6.82c1.178 0 2.308-.073 3.391-.219a15.734 15.734 0 0 0 3.031-.734 10.023 10.023 0 0 0 2.547-1.328 8.048 8.048 0 0 0 1.969-2.016c.552-.791.979-1.719 1.281-2.781.302-1.073.453-2.297.453-3.672 0-1.365-.15-2.578-.453-3.64-.302-1.063-.729-1.99-1.281-2.782a7.715 7.715 0 0 0-1.969-2.015c-.77-.553-1.63-.995-2.578-1.329a15.003 15.003 0 0 0-3.031-.718 23.75 23.75 0 0 0-3.39-.235Zm6.86 10.719c0-1.031-.136-1.927-.407-2.688a4.096 4.096 0 0 0-1.281-1.875c-.583-.5-1.349-.87-2.297-1.109-.948-.25-2.104-.375-3.469-.375H1.656v12.125H8.86c1.365 0 2.521-.12 3.47-.36.947-.25 1.713-.624 2.296-1.124a4.304 4.304 0 0 0 1.281-1.907c.271-.76.406-1.656.406-2.687Z" clip-rule="evenodd"/>
  <path fill="#000" d="M83.723 11.977c0 1.03-.114 1.949-.34 2.753-.227.797-.547 1.493-.961 2.086a6.036 6.036 0 0 1-1.477 1.512 7.513 7.513 0 0 1-1.91.996c-.703.25-1.46.434-2.273.551-.813.11-1.66.164-2.543.164H64V3.937h10.195c.883 0 1.73.06 2.543.176.813.11 1.57.29 2.274.54.71.25 1.355.581 1.933.995.578.407 1.07.91 1.477 1.512.414.594.734 1.29.96 2.086.227.797.34 1.707.34 2.73Zm-4.383 0c0-.774-.102-1.446-.305-2.016a3.073 3.073 0 0 0-.96-1.406c-.438-.375-1.013-.653-1.723-.832-.711-.188-1.579-.282-2.602-.282h-5.402v9.094h5.402c1.023 0 1.89-.09 2.602-.27.71-.187 1.285-.468 1.722-.843.445-.383.766-.86.961-1.43.203-.57.305-1.242.305-2.015Zm22.008 8.063v-1.583c-.555.305-1.153.574-1.793.809a17.179 17.179 0 0 1-4.114.96c-.726.087-1.46.13-2.203.13-.867 0-1.707-.083-2.52-.247a6.938 6.938 0 0 1-2.144-.797 4.455 4.455 0 0 1-1.511-1.44c-.376-.595-.563-1.321-.563-2.18 0-1.087.297-1.989.89-2.708.594-.726 1.5-1.32 2.72-1.78 1.218-.462 2.757-.817 4.617-1.067 1.867-.25 4.074-.446 6.621-.586v-.34a1.63 1.63 0 0 0-.211-.785c-.141-.266-.399-.496-.774-.692-.367-.203-.875-.367-1.523-.492-.64-.125-1.461-.187-2.461-.187-.79 0-1.57.043-2.344.129a23.358 23.358 0 0 0-4.254.82 21.68 21.68 0 0 0-1.746.586V4.723c.547-.141 1.16-.278 1.84-.41.68-.133 1.387-.247 2.121-.34.735-.102 1.477-.18 2.227-.235.75-.062 1.468-.093 2.156-.093 1.352 0 2.598.113 3.738.34 1.141.218 2.121.562 2.942 1.03.828.47 1.472 1.063 1.933 1.782.469.719.703 1.574.703 2.566V20.04h-4.347Zm0-7.349a70.272 70.272 0 0 0-4.266.27c-1.164.117-2.133.254-2.906.41-.774.156-1.383.324-1.828.504-.438.18-.766.363-.985.55-.219.188-.355.376-.41.563a2.14 2.14 0 0 0-.07.516c0 .187.05.371.152.55.102.173.278.325.528.458.257.133.597.238 1.019.316.422.078.953.117 1.594.117.71 0 1.406-.054 2.086-.164a14.28 14.28 0 0 0 1.933-.445c.61-.195 1.18-.422 1.711-.68.539-.265 1.02-.547 1.442-.844v-2.12Zm24.656 7.349v-9.024c0-.602-.051-1.145-.152-1.63a2.852 2.852 0 0 0-.575-1.253c-.273-.352-.66-.621-1.16-.809-.492-.195-1.129-.293-1.91-.293-.594 0-1.219.082-1.875.246-.648.157-1.293.368-1.934.633-.64.266-1.253.574-1.839.926-.579.351-1.094.719-1.547 1.101V20.04h-4.348V3.937h4.348v2.204a32.79 32.79 0 0 1 1.746-.926 17.283 17.283 0 0 1 1.969-.844c.695-.25 1.433-.453 2.214-.61a12.6 12.6 0 0 1 2.473-.234c1.086 0 2.055.133 2.906.399.86.258 1.586.629 2.18 1.113a4.7 4.7 0 0 1 1.359 1.746c.321.68.481 1.442.481 2.285v10.97h-4.336Zm9.316 0V3.937h4.348v16.101h-4.348Zm27.352-.798c-1.32.438-2.641.75-3.961.938a27.358 27.358 0 0 1-4.031.293c-1.758 0-3.325-.188-4.7-.563-1.367-.383-2.519-.933-3.457-1.652a7.135 7.135 0 0 1-2.144-2.637c-.492-1.039-.738-2.215-.738-3.527 0-1.219.246-2.348.738-3.387a8.094 8.094 0 0 1 2.109-2.719c.914-.773 2.016-1.375 3.305-1.804 1.289-.438 2.727-.657 4.312-.657 1.461 0 2.797.2 4.008.598 1.219.39 2.262.973 3.129 1.746a7.79 7.79 0 0 1 2.028 2.86c.484 1.132.726 2.437.726 3.914v1.078h-15.867c.141.507.371.972.691 1.394.328.422.77.781 1.325 1.078.554.297 1.234.528 2.039.692.812.164 1.781.246 2.906.246.797 0 1.578-.047 2.344-.14a22.07 22.07 0 0 0 2.144-.387 17.114 17.114 0 0 0 1.793-.54c.539-.195.973-.39 1.301-.585v3.761Zm-3-8.707a3.663 3.663 0 0 0-.363-1.23c-.196-.43-.508-.817-.938-1.16-.43-.344-.992-.625-1.687-.844-.696-.227-1.563-.34-2.602-.34-.977 0-1.82.121-2.531.363-.711.242-1.309.543-1.793.903-.477.359-.848.746-1.113 1.16-.266.414-.438.797-.516 1.148h11.543Zm23.086-2.953c-.117-.039-.289-.09-.516-.152a7.826 7.826 0 0 0-.773-.2 9.762 9.762 0 0 0-.985-.175 8.221 8.221 0 0 0-1.089-.07c-.782 0-1.512.097-2.192.292a8.914 8.914 0 0 0-1.887.762c-.586.313-1.132.672-1.64 1.078-.5.399-.961.809-1.383 1.23v9.692h-4.348V3.937h4.348v2.614c.523-.39 1.059-.766 1.605-1.125a13.9 13.9 0 0 1 1.723-.973 10.3 10.3 0 0 1 1.899-.668 8.387 8.387 0 0 1 2.964-.21 15.013 15.013 0 0 1 1.641.223c.242.046.453.093.633.14v3.644ZM64 44.04V27.937h4.348v12.574h11.754v3.527H64Zm19.594 0V27.937h4.347v16.101h-4.347ZM97.34 27.938v1.769c.383-.242.797-.492 1.242-.75a11.068 11.068 0 0 1 3.164-1.219 8.746 8.746 0 0 1 1.969-.21c.687 0 1.289.074 1.805.222.515.14.96.328 1.335.563.383.226.707.484.973.773.266.281.496.562.692.844.554-.36 1.101-.688 1.64-.985.539-.297 1.082-.55 1.629-.761a9.771 9.771 0 0 1 1.676-.48 8.826 8.826 0 0 1 1.781-.177c.984 0 1.863.137 2.637.41.781.274 1.441.649 1.98 1.125.539.477.949 1.04 1.231 1.688.289.64.433 1.328.433 2.063v11.226h-4.347V33.434c0-.43-.067-.801-.2-1.114a2.023 2.023 0 0 0-.539-.761 2.071 2.071 0 0 0-.785-.434 3.132 3.132 0 0 0-.949-.14c-1.562 0-3.344.703-5.344 2.109.024.133.039.289.047.468.016.18.024.36.024.54v9.937h-4.348v-10.7c0-.429-.066-.792-.199-1.089a1.9 1.9 0 0 0-.551-.738 2.018 2.018 0 0 0-.797-.399 3.395 3.395 0 0 0-.949-.129c-.406 0-.836.059-1.289.176a8.384 8.384 0 0 0-1.36.492 11.03 11.03 0 0 0-1.347.75c-.438.29-.856.602-1.254.938v10.7h-4.348V27.937h4.348Zm29.168 16.102V27.937h4.347v16.101h-4.347Zm18.422-12.599V44.04h-4.348V31.441h-6.832v-3.503h18.023v3.503h-6.843Zm27.679 11.801c-1.32.438-2.64.75-3.961.938a27.348 27.348 0 0 1-4.031.293c-1.758 0-3.324-.188-4.699-.563-1.367-.383-2.52-.933-3.457-1.652a7.138 7.138 0 0 1-2.145-2.637c-.492-1.039-.738-2.215-.738-3.527 0-1.219.246-2.348.738-3.387a8.098 8.098 0 0 1 2.11-2.719c.914-.773 2.015-1.375 3.304-1.804 1.29-.438 2.727-.657 4.313-.657 1.461 0 2.797.2 4.008.598 1.219.39 2.261.973 3.129 1.746.875.774 1.55 1.727 2.027 2.86.484 1.132.727 2.437.727 3.913v1.079h-15.868c.141.508.372.972.692 1.394.328.422.769.781 1.324 1.078.555.297 1.234.528 2.039.692.813.164 1.781.246 2.906.246.797 0 1.578-.047 2.344-.14a21.906 21.906 0 0 0 2.145-.388 17.187 17.187 0 0 0 1.793-.539c.539-.195.972-.39 1.3-.586v3.762Zm-3-8.707a3.664 3.664 0 0 0-.363-1.23c-.195-.43-.508-.817-.937-1.16-.43-.344-.993-.626-1.688-.844-.695-.227-1.562-.34-2.601-.34-.977 0-1.821.121-2.532.363-.711.242-1.308.543-1.793.903-.476.359-.847.746-1.113 1.16-.266.414-.437.797-.516 1.148h11.543Zm27.996 1.442c0 1.03-.113 1.949-.339 2.754-.227.796-.547 1.492-.961 2.085a6.051 6.051 0 0 1-1.477 1.512 7.51 7.51 0 0 1-1.91.996c-.703.25-1.461.434-2.273.551-.813.11-1.661.164-2.543.164h-10.219V27.937h10.195c.883 0 1.731.06 2.543.176.813.11 1.57.29 2.274.54a7.68 7.68 0 0 1 1.933.995c.578.407 1.07.91 1.477 1.512.414.594.734 1.29.961 2.086.226.797.339 1.707.339 2.73Zm-4.382 0c0-.774-.102-1.446-.305-2.016a3.072 3.072 0 0 0-.961-1.406c-.437-.375-1.012-.653-1.723-.832-.711-.188-1.578-.282-2.601-.282h-5.403v9.094h5.403c1.023 0 1.89-.09 2.601-.27.711-.187 1.286-.468 1.723-.843.445-.383.766-.86.961-1.43.203-.57.305-1.242.305-2.015Z"/>
</svg>
