<svg xmlns="http://www.w3.org/2000/svg" width="64" height="64" fill="none" viewBox="0 0 64 64">
  <g clip-path="url(#a)">
    <rect width="60" height="60" x="2" y="2" stroke="#FF7A40" stroke-width="4" rx="18"/>
    <path fill="#FF7A40" fill-rule="evenodd" d="m11.28 36.992 6.196 6.005 6.005 6.195c4.463 4.605 12.262 1.445 12.262-4.967V35.6h8.625c6.412 0 9.572-7.8 4.967-12.263l-6.195-6.005-6.005-6.195c-4.463-4.605-12.262-1.445-12.262 4.967v8.625h-8.625c-6.413 0-9.572 7.8-4.967 12.263Z" clip-rule="evenodd"/>
    <mask id="b" fill="#fff">
      <path fill-rule="evenodd" d="m14.814 40.525 6.195 6.004 6.005 6.196c4.463 4.605 12.263 1.445 12.263-4.968v-8.625H47.9c6.413 0 9.572-7.8 4.967-12.262l-6.195-6.005-6.005-6.195c-4.463-4.605-12.262-1.446-12.262 4.967v8.625H19.78c-6.412 0-9.572 7.8-4.967 12.263Z" clip-rule="evenodd"/>
    </mask>
    <path fill="#fff" fill-rule="evenodd" d="m14.814 40.525 6.195 6.004 6.005 6.196c4.463 4.605 12.263 1.445 12.263-4.968v-8.625H47.9c6.413 0 9.572-7.8 4.967-12.262l-6.195-6.005-6.005-6.195c-4.463-4.605-12.262-1.446-12.262 4.967v8.625H19.78c-6.412 0-9.572 7.8-4.967 12.263Z" clip-rule="evenodd"/>
    <path fill="#FFA780" d="m21.01 46.53 2.153-2.089-.032-.033-.034-.033-2.088 2.154Zm-6.196-6.005 2.088-2.155-2.088 2.155Zm12.2 12.2 2.154-2.088-2.154 2.088Zm12.263-4.968h3-3Zm0-8.625v-3h-3v3h3Zm8.624 0v3-3Zm4.967-12.262 2.088-2.154-2.088 2.154Zm-6.195-6.005-2.154 2.088.033.034.033.032 2.088-2.154Zm-6.005-6.195 2.155-2.088-2.155 2.088Zm-12.262 4.967h3-3Zm0 8.625v3h3v-3h-3Zm-5.309 16.113-6.195-6.005-4.176 4.309 6.195 6.005 4.176-4.309Zm6.071 6.262-6.005-6.196-4.308 4.176 6.005 6.196 4.308-4.176Zm7.109-2.88c0 3.718-4.522 5.55-7.109 2.88l-4.308 4.176c6.339 6.54 17.417 2.052 17.417-7.056h-6Zm0-8.625v8.625h6v-8.625h-6Zm3 3H47.9v-6h-8.624v6Zm8.624 0c9.108 0 13.596-11.077 7.055-17.416l-4.175 4.308c2.669 2.587.837 7.108-2.88 7.108v6Zm7.055-17.416-6.195-6.005-4.176 4.308 6.196 6.005 4.175-4.308Zm-6.129-5.939-6.004-6.195-4.309 4.175 6.005 6.196 4.308-4.176Zm-6.004-6.195c-6.34-6.54-17.417-2.053-17.417 7.055h6c0-3.717 4.521-5.549 7.108-2.88l4.309-4.175Zm-17.417 7.055v8.625h6v-8.625h-6ZM19.78 31.262h8.625v-6H19.78v6ZM16.9 38.37c-2.668-2.587-.837-7.108 2.88-7.108v-6c-9.108 0-13.595 11.078-7.055 17.417l4.176-4.309Z" mask="url(#b)"/>
  </g>
  <defs>
    <clipPath id="a">
      <path fill="#fff" d="M0 0h64v64H0z"/>
    </clipPath>
  </defs>
</svg>
